<svg width="147" height="37" viewBox="0 0 147 37" fill="none" xmlns="http://www.w3.org/2000/svg">
<g clip-path="url(#clip0_612_30)">
<path d="M11.7277 2.00225L20.2562 10.5262L20.2562 20.4805L6.75285 6.97715L11.7277 2.00225Z" fill="#FF5061"/>
<path d="M6.75289 16.9268L20.2562 30.4301L15.2813 35.405L6.74995 26.8734L6.75289 16.9268Z" fill="#7F52FF"/>
<rect x="6.75278" y="6.97717" width="26.1321" height="7.03558" transform="rotate(45 6.75278 6.97717)" fill="#E21AFF"/>
<path d="M44.48 30.39C43.3 30.39 42.17 30.205 41.09 29.835C40.01 29.455 39.065 28.915 38.255 28.215C37.445 27.505 36.86 26.66 36.5 25.68L40.73 24.12C40.83 24.41 41.05 24.69 41.39 24.96C41.74 25.23 42.18 25.455 42.71 25.635C43.24 25.805 43.83 25.89 44.48 25.89C45.08 25.89 45.645 25.805 46.175 25.635C46.705 25.455 47.135 25.21 47.465 24.9C47.795 24.59 47.96 24.23 47.96 23.82C47.96 23.4 47.785 23.055 47.435 22.785C47.095 22.505 46.655 22.285 46.115 22.125C45.585 21.955 45.04 21.83 44.48 21.75C42.96 21.53 41.595 21.17 40.385 20.67C39.185 20.16 38.235 19.46 37.535 18.57C36.845 17.68 36.5 16.55 36.5 15.18C36.5 13.87 36.87 12.725 37.61 11.745C38.35 10.755 39.325 9.985 40.535 9.435C41.755 8.885 43.07 8.61 44.48 8.61C45.66 8.61 46.79 8.8 47.87 9.18C48.96 9.55 49.91 10.09 50.72 10.8C51.53 11.51 52.11 12.36 52.46 13.35L48.23 14.88C48.13 14.59 47.905 14.315 47.555 14.055C47.215 13.785 46.78 13.565 46.25 13.395C45.72 13.225 45.13 13.14 44.48 13.14C43.9 13.13 43.345 13.215 42.815 13.395C42.285 13.575 41.85 13.82 41.51 14.13C41.17 14.44 41 14.79 41 15.18C41 15.72 41.16 16.125 41.48 16.395C41.8 16.655 42.22 16.84 42.74 16.95C43.27 17.06 43.85 17.16 44.48 17.25C45.92 17.46 47.245 17.835 48.455 18.375C49.665 18.915 50.635 19.635 51.365 20.535C52.095 21.435 52.46 22.53 52.46 23.82C52.46 25.13 52.09 26.28 51.35 27.27C50.62 28.25 49.65 29.015 48.44 29.565C47.23 30.115 45.91 30.39 44.48 30.39ZM61.7398 30.39C60.3598 30.39 59.0998 30.035 57.9598 29.325C56.8298 28.615 55.9248 27.66 55.2448 26.46C54.5748 25.26 54.2398 23.935 54.2398 22.485C54.2398 21.395 54.4348 20.375 54.8248 19.425C55.2148 18.465 55.7498 17.625 56.4298 16.905C57.1198 16.175 57.9198 15.605 58.8298 15.195C59.7398 14.785 60.7098 14.58 61.7398 14.58C62.9398 14.58 64.0348 14.845 65.0248 15.375C66.0248 15.895 66.8648 16.605 67.5448 17.505C68.2348 18.395 68.7248 19.4 69.0148 20.52C69.3048 21.64 69.3348 22.795 69.1048 23.985H59.0998C59.2398 24.335 59.4248 24.655 59.6548 24.945C59.8948 25.225 60.1848 25.45 60.5248 25.62C60.8748 25.79 61.2798 25.88 61.7398 25.89C62.1798 25.9 62.5848 25.805 62.9548 25.605C63.3348 25.405 63.6648 25.135 63.9448 24.795L68.5348 25.86C67.9248 27.19 67.0148 28.28 65.8048 29.13C64.5948 29.97 63.2398 30.39 61.7398 30.39ZM58.9348 20.685H64.5598C64.4198 20.255 64.2098 19.875 63.9298 19.545C63.6498 19.215 63.3198 18.955 62.9398 18.765C62.5698 18.575 62.1698 18.48 61.7398 18.48C61.3198 18.48 60.9198 18.575 60.5398 18.765C60.1698 18.955 59.8448 19.215 59.5648 19.545C59.2948 19.875 59.0848 20.255 58.9348 20.685ZM71.1652 30V7.5H75.6652V30H71.1652ZM85.5289 30.39C84.1489 30.39 82.8889 30.035 81.7489 29.325C80.6189 28.615 79.7139 27.66 79.0339 26.46C78.3639 25.26 78.0289 23.935 78.0289 22.485C78.0289 21.395 78.2239 20.375 78.6139 19.425C79.0039 18.465 79.5389 17.625 80.2189 16.905C80.9089 16.175 81.7089 15.605 82.6189 15.195C83.5289 14.785 84.4989 14.58 85.5289 14.58C86.7289 14.58 87.8239 14.845 88.8139 15.375C89.8139 15.895 90.6539 16.605 91.3339 17.505C92.0239 18.395 92.5139 19.4 92.8039 20.52C93.0939 21.64 93.1239 22.795 92.8939 23.985H82.8889C83.0289 24.335 83.2139 24.655 83.4439 24.945C83.6839 25.225 83.9739 25.45 84.3139 25.62C84.6639 25.79 85.0689 25.88 85.5289 25.89C85.9689 25.9 86.3739 25.805 86.7439 25.605C87.1239 25.405 87.4539 25.135 87.7339 24.795L92.3239 25.86C91.7139 27.19 90.8039 28.28 89.5939 29.13C88.3839 29.97 87.0289 30.39 85.5289 30.39ZM82.7239 20.685H88.3489C88.2089 20.255 87.9989 19.875 87.7189 19.545C87.4389 19.215 87.1089 18.955 86.7289 18.765C86.3589 18.575 85.9589 18.48 85.5289 18.48C85.1089 18.48 84.7089 18.575 84.3289 18.765C83.9589 18.955 83.6339 19.215 83.3539 19.545C83.0839 19.875 82.8739 20.255 82.7239 20.685ZM109.362 20.415V30H104.862V21.675C104.862 21.205 104.747 20.78 104.517 20.4C104.287 20.01 103.982 19.705 103.602 19.485C103.222 19.255 102.797 19.14 102.327 19.14C101.857 19.14 101.427 19.255 101.037 19.485C100.657 19.705 100.352 20.01 100.122 20.4C99.9016 20.78 99.7916 21.205 99.7916 21.675V30H95.2916L95.2766 15H99.7766L99.7916 15.945C100.292 15.515 100.862 15.18 101.502 14.94C102.142 14.7 102.817 14.58 103.527 14.58C104.607 14.58 105.587 14.845 106.467 15.375C107.347 15.895 108.047 16.595 108.567 17.475C109.097 18.355 109.362 19.335 109.362 20.415ZM118.664 30.39C117.284 30.39 116.024 30.035 114.884 29.325C113.754 28.615 112.849 27.665 112.169 26.475C111.499 25.275 111.164 23.95 111.164 22.5C111.164 21.4 111.359 20.375 111.749 19.425C112.139 18.465 112.674 17.625 113.354 16.905C114.044 16.175 114.844 15.605 115.754 15.195C116.664 14.785 117.634 14.58 118.664 14.58C120.044 14.58 121.299 14.935 122.429 15.645C123.569 16.355 124.474 17.31 125.144 18.51C125.824 19.71 126.164 21.04 126.164 22.5C126.164 23.59 125.969 24.61 125.579 25.56C125.189 26.51 124.649 27.35 123.959 28.08C123.279 28.8 122.484 29.365 121.574 29.775C120.674 30.185 119.704 30.39 118.664 30.39ZM118.664 25.89C119.234 25.89 119.744 25.735 120.194 25.425C120.654 25.115 121.014 24.705 121.274 24.195C121.534 23.675 121.664 23.11 121.664 22.5C121.664 21.87 121.524 21.295 121.244 20.775C120.974 20.255 120.609 19.845 120.149 19.545C119.699 19.235 119.204 19.08 118.664 19.08C118.104 19.08 117.594 19.24 117.134 19.56C116.684 19.87 116.324 20.285 116.054 20.805C115.794 21.325 115.664 21.89 115.664 22.5C115.664 23.14 115.799 23.715 116.069 24.225C116.349 24.735 116.714 25.14 117.164 25.44C117.624 25.74 118.124 25.89 118.664 25.89ZM139.358 7.5H143.858V30H139.358V28.62C138.898 29.14 138.348 29.565 137.708 29.895C137.078 30.225 136.358 30.39 135.548 30.39C134.458 30.39 133.438 30.185 132.488 29.775C131.538 29.365 130.698 28.8 129.968 28.08C129.248 27.35 128.683 26.51 128.273 25.56C127.863 24.61 127.658 23.59 127.658 22.5C127.658 21.41 127.863 20.39 128.273 19.44C128.683 18.49 129.248 17.655 129.968 16.935C130.698 16.205 131.538 15.635 132.488 15.225C133.438 14.815 134.458 14.61 135.548 14.61C136.358 14.61 137.078 14.775 137.708 15.105C138.348 15.425 138.898 15.85 139.358 16.38V7.5ZM135.608 26.07C136.228 26.07 136.793 25.91 137.303 25.59C137.813 25.27 138.218 24.84 138.518 24.3C138.818 23.76 138.968 23.16 138.968 22.5C138.968 21.84 138.818 21.24 138.518 20.7C138.218 20.16 137.813 19.73 137.303 19.41C136.793 19.09 136.228 18.93 135.608 18.93C134.988 18.93 134.423 19.09 133.913 19.41C133.413 19.73 133.013 20.16 132.713 20.7C132.423 21.24 132.278 21.84 132.278 22.5C132.278 23.16 132.428 23.76 132.728 24.3C133.028 24.84 133.428 25.27 133.928 25.59C134.438 25.91 134.998 26.07 135.608 26.07Z" fill="#1A1B1C"/>
</g>
<defs>
<clipPath id="clip0_612_30">
<rect width="147" height="37" fill="white"/>
</clipPath>
</defs>
</svg>
