<svg width="147" height="37" viewBox="0 0 147 37" fill="none" xmlns="http://www.w3.org/2000/svg">
<g clip-path="url(#clip0_103_53)">
<path d="M11.3839 1.00247L20.7462 10.3599L20.7462 21.2875L5.92253 6.46382L11.3839 1.00247Z" fill="#E44857"/>
<path d="M5.92261 17.3863L20.7463 32.21L15.2849 37.6713L5.91938 28.3055L5.92261 17.3863Z" fill="#7F52FF"/>
<rect x="5.92249" y="6.46384" width="28.6874" height="7.72352" transform="rotate(45 5.92249 6.46384)" fill="#C711E1"/>
<path d="M44.48 30.39C43.3 30.39 42.17 30.205 41.09 29.835C40.01 29.455 39.065 28.915 38.255 28.215C37.445 27.505 36.86 26.66 36.5 25.68L40.73 24.12C40.83 24.41 41.05 24.69 41.39 24.96C41.74 25.23 42.18 25.455 42.71 25.635C43.24 25.805 43.83 25.89 44.48 25.89C45.08 25.89 45.645 25.805 46.175 25.635C46.705 25.455 47.135 25.21 47.465 24.9C47.795 24.59 47.96 24.23 47.96 23.82C47.96 23.4 47.785 23.055 47.435 22.785C47.095 22.505 46.655 22.285 46.115 22.125C45.585 21.955 45.04 21.83 44.48 21.75C42.96 21.53 41.595 21.17 40.385 20.67C39.185 20.16 38.235 19.46 37.535 18.57C36.845 17.68 36.5 16.55 36.5 15.18C36.5 13.87 36.87 12.725 37.61 11.745C38.35 10.755 39.325 9.985 40.535 9.435C41.755 8.885 43.07 8.61 44.48 8.61C45.66 8.61 46.79 8.8 47.87 9.18C48.96 9.55 49.91 10.09 50.72 10.8C51.53 11.51 52.11 12.36 52.46 13.35L48.23 14.88C48.13 14.59 47.905 14.315 47.555 14.055C47.215 13.785 46.78 13.565 46.25 13.395C45.72 13.225 45.13 13.14 44.48 13.14C43.9 13.13 43.345 13.215 42.815 13.395C42.285 13.575 41.85 13.82 41.51 14.13C41.17 14.44 41 14.79 41 15.18C41 15.72 41.16 16.125 41.48 16.395C41.8 16.655 42.22 16.84 42.74 16.95C43.27 17.06 43.85 17.16 44.48 17.25C45.92 17.46 47.245 17.835 48.455 18.375C49.665 18.915 50.635 19.635 51.365 20.535C52.095 21.435 52.46 22.53 52.46 23.82C52.46 25.13 52.09 26.28 51.35 27.27C50.62 28.25 49.65 29.015 48.44 29.565C47.23 30.115 45.91 30.39 44.48 30.39ZM61.7691 30.39C60.3891 30.39 59.1291 30.035 57.9891 29.325C56.8591 28.615 55.9541 27.66 55.2741 26.46C54.6041 25.26 54.2691 23.935 54.2691 22.485C54.2691 21.395 54.4641 20.375 54.8541 19.425C55.2441 18.465 55.7791 17.625 56.4591 16.905C57.1491 16.175 57.9491 15.605 58.8591 15.195C59.7691 14.785 60.7391 14.58 61.7691 14.58C62.9691 14.58 64.0641 14.845 65.0541 15.375C66.0541 15.895 66.8941 16.605 67.5741 17.505C68.2641 18.395 68.7541 19.4 69.0441 20.52C69.3341 21.64 69.3641 22.795 69.1341 23.985H59.1291C59.2691 24.335 59.4541 24.655 59.6841 24.945C59.9241 25.225 60.2141 25.45 60.5541 25.62C60.9041 25.79 61.3091 25.88 61.7691 25.89C62.2091 25.9 62.6141 25.805 62.9841 25.605C63.3641 25.405 63.6941 25.135 63.9741 24.795L68.5641 25.86C67.9541 27.19 67.0441 28.28 65.8341 29.13C64.6241 29.97 63.2691 30.39 61.7691 30.39ZM58.9641 20.685H64.5891C64.4491 20.255 64.2391 19.875 63.9591 19.545C63.6791 19.215 63.3491 18.955 62.9691 18.765C62.5991 18.575 62.1991 18.48 61.7691 18.48C61.3491 18.48 60.9491 18.575 60.5691 18.765C60.1991 18.955 59.8741 19.215 59.5941 19.545C59.3241 19.875 59.1141 20.255 58.9641 20.685ZM71.3703 30V7.5H75.8703V30H71.3703ZM86.0563 30.39C84.6763 30.39 83.4163 30.035 82.2763 29.325C81.1463 28.615 80.2413 27.66 79.5613 26.46C78.8913 25.26 78.5563 23.935 78.5563 22.485C78.5563 21.395 78.7513 20.375 79.1413 19.425C79.5313 18.465 80.0663 17.625 80.7463 16.905C81.4363 16.175 82.2363 15.605 83.1463 15.195C84.0563 14.785 85.0263 14.58 86.0563 14.58C87.2563 14.58 88.3513 14.845 89.3413 15.375C90.3413 15.895 91.1813 16.605 91.8613 17.505C92.5513 18.395 93.0413 19.4 93.3313 20.52C93.6213 21.64 93.6513 22.795 93.4212 23.985H83.4163C83.5563 24.335 83.7413 24.655 83.9713 24.945C84.2113 25.225 84.5013 25.45 84.8413 25.62C85.1913 25.79 85.5962 25.88 86.0563 25.89C86.4963 25.9 86.9013 25.805 87.2713 25.605C87.6513 25.405 87.9813 25.135 88.2613 24.795L92.8513 25.86C92.2413 27.19 91.3313 28.28 90.1213 29.13C88.9113 29.97 87.5563 30.39 86.0563 30.39ZM83.2513 20.685H88.8763C88.7363 20.255 88.5263 19.875 88.2463 19.545C87.9663 19.215 87.6363 18.955 87.2563 18.765C86.8863 18.575 86.4863 18.48 86.0563 18.48C85.6363 18.48 85.2363 18.575 84.8563 18.765C84.4863 18.955 84.1613 19.215 83.8813 19.545C83.6113 19.875 83.4013 20.255 83.2513 20.685ZM110.744 22.41V30H106.244V22.47C106.244 21.82 106.109 21.225 105.839 20.685C105.569 20.145 105.189 19.715 104.699 19.395C104.209 19.065 103.634 18.9 102.974 18.9C102.324 18.9 101.779 19.065 101.339 19.395C100.899 19.715 100.564 20.145 100.334 20.685C100.114 21.225 100.004 21.82 100.004 22.47V30H95.5039V15H100.004V16.38C100.474 15.84 101.019 15.405 101.639 15.075C102.259 14.745 102.974 14.58 103.784 14.58C105.224 14.58 106.459 14.935 107.489 15.645C108.529 16.345 109.329 17.29 109.889 18.48C110.449 19.66 110.734 20.97 110.744 22.41ZM120.07 30.39C118.69 30.39 117.43 30.035 116.29 29.325C115.16 28.615 114.255 27.665 113.575 26.475C112.905 25.275 112.57 23.95 112.57 22.5C112.57 21.4 112.765 20.375 113.155 19.425C113.545 18.465 114.08 17.625 114.76 16.905C115.45 16.175 116.25 15.605 117.16 15.195C118.07 14.785 119.04 14.58 120.07 14.58C121.45 14.58 122.705 14.935 123.835 15.645C124.975 16.355 125.88 17.31 126.55 18.51C127.23 19.71 127.57 21.04 127.57 22.5C127.57 23.59 127.375 24.61 126.985 25.56C126.595 26.51 126.055 27.35 125.365 28.08C124.685 28.8 123.89 29.365 122.98 29.775C122.08 30.185 121.11 30.39 120.07 30.39ZM120.07 25.89C120.64 25.89 121.15 25.735 121.6 25.425C122.06 25.115 122.42 24.705 122.68 24.195C122.94 23.675 123.07 23.11 123.07 22.5C123.07 21.87 122.93 21.295 122.65 20.775C122.38 20.255 122.015 19.845 121.555 19.545C121.105 19.235 120.61 19.08 120.07 19.08C119.51 19.08 119 19.24 118.54 19.56C118.09 19.87 117.73 20.285 117.46 20.805C117.2 21.325 117.07 21.89 117.07 22.5C117.07 23.14 117.205 23.715 117.475 24.225C117.755 24.735 118.12 25.14 118.57 25.44C119.03 25.74 119.53 25.89 120.07 25.89ZM140.764 7.5H145.264V30H140.764V28.62C140.304 29.14 139.754 29.565 139.114 29.895C138.484 30.225 137.764 30.39 136.954 30.39C135.864 30.39 134.844 30.185 133.894 29.775C132.944 29.365 132.104 28.8 131.374 28.08C130.654 27.35 130.089 26.51 129.679 25.56C129.269 24.61 129.064 23.59 129.064 22.5C129.064 21.41 129.269 20.39 129.679 19.44C130.089 18.49 130.654 17.655 131.374 16.935C132.104 16.205 132.944 15.635 133.894 15.225C134.844 14.815 135.864 14.61 136.954 14.61C137.764 14.61 138.484 14.775 139.114 15.105C139.754 15.425 140.304 15.85 140.764 16.38V7.5ZM137.014 26.07C137.634 26.07 138.199 25.91 138.709 25.59C139.219 25.27 139.624 24.84 139.924 24.3C140.224 23.76 140.374 23.16 140.374 22.5C140.374 21.84 140.224 21.24 139.924 20.7C139.624 20.16 139.219 19.73 138.709 19.41C138.199 19.09 137.634 18.93 137.014 18.93C136.404 18.93 135.844 19.09 135.334 19.41C134.834 19.73 134.434 20.16 134.134 20.7C133.834 21.24 133.684 21.84 133.684 22.5C133.684 23.16 133.834 23.76 134.134 24.3C134.434 24.84 134.834 25.27 135.334 25.59C135.844 25.91 136.404 26.07 137.014 26.07Z" fill="#1A1B1C"/>
</g>
<defs>
<clipPath id="clip0_103_53">
<rect width="147" height="37" fill="white"/>
</clipPath>
</defs>
</svg>
