<svg width="135" height="37" viewBox="0 0 150 37" fill="none" xmlns="http://www.w3.org/2000/svg">
  <g clip-path="url(#clip0_103_53)">
    <path d="M11.4293 1.00247L20.6601 10.2283L20.5679 21.0946L5.95255 6.47921L11.4293 1.00247Z" fill="#E44857"/>
    <path d="M5.86047 17.3388L20.4759 31.9542L14.9991 37.4309L5.76517 28.1967L5.86047 17.3388Z" fill="#7F52FF"/>
    <rect x="5.95264" y="6.47919" width="28.2843" height="7.74528" transform="rotate(45 5.95264 6.47919)" fill="#C711E1"/>
    <path d="M47.48 30.39C46.3 30.39 45.17 30.205 44.09 29.835C43.01 29.455 42.065 28.915 41.255 28.215C40.445 27.505 39.86 26.66 39.5 25.68L43.73 24.12C43.83 24.41 44.05 24.69 44.39 24.96C44.74 25.23 45.18 25.455 45.71 25.635C46.24 25.805 46.83 25.89 47.48 25.89C48.08 25.89 48.645 25.805 49.175 25.635C49.705 25.455 50.135 25.21 50.465 24.9C50.795 24.59 50.96 24.23 50.96 23.82C50.96 23.4 50.785 23.055 50.435 22.785C50.095 22.505 49.655 22.285 49.115 22.125C48.585 21.955 48.04 21.83 47.48 21.75C45.96 21.53 44.595 21.17 43.385 20.67C42.185 20.16 41.235 19.46 40.535 18.57C39.845 17.68 39.5 16.55 39.5 15.18C39.5 13.87 39.87 12.725 40.61 11.745C41.35 10.755 42.325 9.985 43.535 9.435C44.755 8.885 46.07 8.61 47.48 8.61C48.66 8.61 49.79 8.8 50.87 9.18C51.96 9.55 52.91 10.09 53.72 10.8C54.53 11.51 55.11 12.36 55.46 13.35L51.23 14.88C51.13 14.59 50.905 14.315 50.555 14.055C50.215 13.785 49.78 13.565 49.25 13.395C48.72 13.225 48.13 13.14 47.48 13.14C46.9 13.13 46.345 13.215 45.815 13.395C45.285 13.575 44.85 13.82 44.51 14.13C44.17 14.44 44 14.79 44 15.18C44 15.72 44.16 16.125 44.48 16.395C44.8 16.655 45.22 16.84 45.74 16.95C46.27 17.06 46.85 17.16 47.48 17.25C48.92 17.46 50.245 17.835 51.455 18.375C52.665 18.915 53.635 19.635 54.365 20.535C55.095 21.435 55.46 22.53 55.46 23.82C55.46 25.13 55.09 26.28 54.35 27.27C53.62 28.25 52.65 29.015 51.44 29.565C50.23 30.115 48.91 30.39 47.48 30.39ZM64.7691 30.39C63.3891 30.39 62.1291 30.035 60.9891 29.325C59.8591 28.615 58.9541 27.66 58.2741 26.46C57.6041 25.26 57.2691 23.935 57.2691 22.485C57.2691 21.395 57.4641 20.375 57.8541 19.425C58.2441 18.465 58.7791 17.625 59.4591 16.905C60.1491 16.175 60.9491 15.605 61.8591 15.195C62.7691 14.785 63.7391 14.58 64.7691 14.58C65.9691 14.58 67.0641 14.845 68.0541 15.375C69.0541 15.895 69.8941 16.605 70.5741 17.505C71.2641 18.395 71.7541 19.4 72.0441 20.52C72.3341 21.64 72.3641 22.795 72.1341 23.985H62.1291C62.2691 24.335 62.4541 24.655 62.6841 24.945C62.9241 25.225 63.2141 25.45 63.5541 25.62C63.9041 25.79 64.3091 25.88 64.7691 25.89C65.2091 25.9 65.6141 25.805 65.9841 25.605C66.3641 25.405 66.6941 25.135 66.9741 24.795L71.5641 25.86C70.9541 27.19 70.0441 28.28 68.8341 29.13C67.6241 29.97 66.2691 30.39 64.7691 30.39ZM61.9641 20.685H67.5891C67.4491 20.255 67.2391 19.875 66.9591 19.545C66.6791 19.215 66.3491 18.955 65.9691 18.765C65.5991 18.575 65.1991 18.48 64.7691 18.48C64.3491 18.48 63.9491 18.575 63.5691 18.765C63.1991 18.955 62.8741 19.215 62.5941 19.545C62.3241 19.875 62.1141 20.255 61.9641 20.685ZM74.3703 30V7.5H78.8703V30H74.3703ZM89.0563 30.39C87.6763 30.39 86.4163 30.035 85.2763 29.325C84.1463 28.615 83.2413 27.66 82.5613 26.46C81.8913 25.26 81.5563 23.935 81.5563 22.485C81.5563 21.395 81.7513 20.375 82.1413 19.425C82.5313 18.465 83.0663 17.625 83.7463 16.905C84.4363 16.175 85.2363 15.605 86.1463 15.195C87.0563 14.785 88.0263 14.58 89.0563 14.58C90.2563 14.58 91.3513 14.845 92.3413 15.375C93.3413 15.895 94.1813 16.605 94.8613 17.505C95.5513 18.395 96.0413 19.4 96.3313 20.52C96.6213 21.64 96.6513 22.795 96.4212 23.985H86.4163C86.5563 24.335 86.7413 24.655 86.9713 24.945C87.2113 25.225 87.5013 25.45 87.8413 25.62C88.1913 25.79 88.5962 25.88 89.0563 25.89C89.4963 25.9 89.9013 25.805 90.2713 25.605C90.6513 25.405 90.9813 25.135 91.2613 24.795L95.8513 25.86C95.2413 27.19 94.3313 28.28 93.1213 29.13C91.9113 29.97 90.5563 30.39 89.0563 30.39ZM86.2513 20.685H91.8763C91.7363 20.255 91.5263 19.875 91.2463 19.545C90.9663 19.215 90.6363 18.955 90.2563 18.765C89.8863 18.575 89.4863 18.48 89.0563 18.48C88.6363 18.48 88.2363 18.575 87.8563 18.765C87.4863 18.955 87.1613 19.215 86.8813 19.545C86.6113 19.875 86.4013 20.255 86.2513 20.685ZM113.744 22.41V30H109.244V22.47C109.244 21.82 109.109 21.225 108.839 20.685C108.569 20.145 108.189 19.715 107.699 19.395C107.209 19.065 106.634 18.9 105.974 18.9C105.324 18.9 104.779 19.065 104.339 19.395C103.899 19.715 103.564 20.145 103.334 20.685C103.114 21.225 103.004 21.82 103.004 22.47V30H98.5039V15H103.004V16.38C103.474 15.84 104.019 15.405 104.639 15.075C105.259 14.745 105.974 14.58 106.784 14.58C108.224 14.58 109.459 14.935 110.489 15.645C111.529 16.345 112.329 17.29 112.889 18.48C113.449 19.66 113.734 20.97 113.744 22.41ZM123.07 30.39C121.69 30.39 120.43 30.035 119.29 29.325C118.16 28.615 117.255 27.665 116.575 26.475C115.905 25.275 115.57 23.95 115.57 22.5C115.57 21.4 115.765 20.375 116.155 19.425C116.545 18.465 117.08 17.625 117.76 16.905C118.45 16.175 119.25 15.605 120.16 15.195C121.07 14.785 122.04 14.58 123.07 14.58C124.45 14.58 125.705 14.935 126.835 15.645C127.975 16.355 128.88 17.31 129.55 18.51C130.23 19.71 130.57 21.04 130.57 22.5C130.57 23.59 130.375 24.61 129.985 25.56C129.595 26.51 129.055 27.35 128.365 28.08C127.685 28.8 126.89 29.365 125.98 29.775C125.08 30.185 124.11 30.39 123.07 30.39ZM123.07 25.89C123.64 25.89 124.15 25.735 124.6 25.425C125.06 25.115 125.42 24.705 125.68 24.195C125.94 23.675 126.07 23.11 126.07 22.5C126.07 21.87 125.93 21.295 125.65 20.775C125.38 20.255 125.015 19.845 124.555 19.545C124.105 19.235 123.61 19.08 123.07 19.08C122.51 19.08 122 19.24 121.54 19.56C121.09 19.87 120.73 20.285 120.46 20.805C120.2 21.325 120.07 21.89 120.07 22.5C120.07 23.14 120.205 23.715 120.475 24.225C120.755 24.735 121.12 25.14 121.57 25.44C122.03 25.74 122.53 25.89 123.07 25.89ZM143.764 7.5H148.264V30H143.764V28.62C143.304 29.14 142.754 29.565 142.114 29.895C141.484 30.225 140.764 30.39 139.954 30.39C138.864 30.39 137.844 30.185 136.894 29.775C135.944 29.365 135.104 28.8 134.374 28.08C133.654 27.35 133.089 26.51 132.679 25.56C132.269 24.61 132.064 23.59 132.064 22.5C132.064 21.41 132.269 20.39 132.679 19.44C133.089 18.49 133.654 17.655 134.374 16.935C135.104 16.205 135.944 15.635 136.894 15.225C137.844 14.815 138.864 14.61 139.954 14.61C140.764 14.61 141.484 14.775 142.114 15.105C142.754 15.425 143.304 15.85 143.764 16.38V7.5ZM140.014 26.07C140.634 26.07 141.199 25.91 141.709 25.59C142.219 25.27 142.624 24.84 142.924 24.3C143.224 23.76 143.374 23.16 143.374 22.5C143.374 21.84 143.224 21.24 142.924 20.7C142.624 20.16 142.219 19.73 141.709 19.41C141.199 19.09 140.634 18.93 140.014 18.93C139.404 18.93 138.844 19.09 138.334 19.41C137.834 19.73 137.434 20.16 137.134 20.7C136.834 21.24 136.684 21.84 136.684 22.5C136.684 23.16 136.834 23.76 137.134 24.3C137.434 24.84 137.834 25.27 138.334 25.59C138.844 25.91 139.404 26.07 140.014 26.07Z" fill="#1A1B1C"/>
  </g>
  <defs>
    <clipPath id="clip0_103_53">
      <rect width="150" height="37" fill="white"/>
    </clipPath>
  </defs>
</svg>